<svg width="99" height="56" viewBox="0 0 99 56" fill="none" xmlns="http://www.w3.org/2000/svg">
<path fill-rule="evenodd" clip-rule="evenodd" d="M61.7899 15.5648C68.3234 15.5648 73.6995 20.3272 73.6995 26.5996C73.6995 30.4327 72.1392 33.3946 69.9996 33.3946C68.5538 33.3946 67.5715 32.3492 67.5715 31.0716C67.5715 29.7357 68.7276 29.155 68.7276 26.7738C68.7276 22.7664 65.6057 20.0948 61.8478 20.0948C58.2058 20.0948 55.3156 22.8827 55.3156 26.5414C55.3156 30.665 58.2637 32.4073 63.1198 34.0335C68.7276 35.892 73.6995 38.215 73.6995 45.0102C73.6995 51.1083 68.9014 55.8707 62.1954 55.8707C55.7199 55.8707 50.3435 51.2245 50.3435 45.1844C50.3435 43.1517 51.4997 42.2224 52.8294 42.2224C54.159 42.2224 55.2577 43.0936 55.3156 44.7779C55.3736 48.5529 58.3796 51.3406 62.1375 51.3406C66.1258 51.3406 68.7276 48.7852 68.7276 45.4748C68.7276 41.6997 65.8374 40.1317 60.9235 38.5636C55.1998 36.7051 50.3435 34.1497 50.3435 27.0642C50.3435 20.5595 55.3156 15.5648 61.7899 15.5648V15.5648ZM10.9264 0C17.1123 0 22.142 4.29777 22.2576 10.2798C22.3154 11.964 21.1013 12.8932 19.7717 12.8932C18.4999 12.8932 17.4013 11.964 17.3435 10.396C17.2857 7.02742 14.453 4.53005 10.8686 4.53005C7.5155 4.53005 4.97188 6.91128 4.97188 10.1635C4.97188 13.7063 7.34209 15.2744 12.2562 17.0748C17.5171 18.9914 22.3154 21.2565 22.3154 27.9934C22.3154 33.8593 17.7483 38.5636 11.389 38.5636C5.1453 38.5636 0 34.1497 0 28.1676C0 24.4507 1.79217 21.8372 3.52654 21.8372C5.02969 21.8372 5.95468 22.8245 5.95468 24.1603C5.95468 25.3218 4.97188 25.8446 4.97188 27.9353C4.97188 31.6523 7.97806 34.0335 11.389 34.0335C14.9733 34.0335 17.3435 31.5361 17.3435 28.5162C17.3435 24.7992 14.9733 23.2311 10.0592 21.4887C4.56713 19.5141 0 17.1329 0 10.5702C0 4.64619 4.74054 0 10.9264 0ZM36.3295 15.5648C43.1512 15.5648 47.9496 20.6756 47.9496 27.645V36.1243C47.9496 37.5763 46.7934 38.5636 45.4638 38.5636C44.0762 38.5636 42.92 37.5763 42.92 36.1243V27.8192C42.92 23.2311 40.3185 20.0948 36.2138 20.0948C32.5716 20.0948 29.6811 23.173 29.6811 27.1222C29.6811 30.7811 32.5138 33.9174 36.0982 33.9174C37.4279 33.9174 38.006 33.5688 38.8153 33.5688C39.9139 33.5688 41.0701 34.4981 41.0701 35.8339C41.0701 37.6343 38.9309 38.5636 36.156 38.5636C29.9123 38.5636 24.7093 33.5108 24.7093 27.1222C24.7093 20.5014 29.9701 15.5648 36.3295 15.5648V15.5648ZM87.5981 15.5648C94.0145 15.5648 98.8718 20.0367 98.8718 25.7284C98.8718 27.9353 97.3102 29.2711 94.7663 29.2711H88.1182C86.7884 29.2711 85.8061 28.3419 85.8061 27.1222C85.8061 25.9607 86.7884 25.0315 88.1182 25.0315H93.0901C93.5523 25.0315 93.8999 24.7992 93.8999 24.3345C93.8999 22.6503 91.7602 20.0367 87.7719 20.0367C84.072 20.0367 81.0646 23.2311 81.0646 27.0642C81.0646 30.9553 84.1286 34.0335 87.9444 34.0335C92.3383 34.0335 93.784 31.42 95.5761 31.42C97.0797 31.42 97.8882 32.4073 97.8882 33.5108C97.8882 34.5561 97.1943 35.4854 95.4602 36.589C93.7261 37.6924 91.1243 38.5636 87.8865 38.5636C81.4122 38.5636 76.0928 33.4527 76.0928 27.0642C76.0928 20.6756 81.2384 15.5648 87.5981 15.5648V15.5648Z" fill="#00FF00"/>
<path fill-rule="evenodd" clip-rule="evenodd" d="M61.7899 15.5648C68.3234 15.5648 73.6995 20.3272 73.6995 26.5996C73.6995 30.4327 72.1392 33.3946 69.9996 33.3946C68.5538 33.3946 67.5715 32.3492 67.5715 31.0716C67.5715 29.7357 68.7276 29.155 68.7276 26.7738C68.7276 22.7664 65.6057 20.0948 61.8478 20.0948C58.2058 20.0948 55.3156 22.8827 55.3156 26.5414C55.3156 30.665 58.2637 32.4073 63.1198 34.0335C68.7276 35.892 73.6995 38.215 73.6995 45.0102C73.6995 51.1083 68.9014 55.8707 62.1954 55.8707C55.7199 55.8707 50.3435 51.2245 50.3435 45.1844C50.3435 43.1517 51.4997 42.2224 52.8294 42.2224C54.159 42.2224 55.2577 43.0936 55.3156 44.7779C55.3736 48.5529 58.3796 51.3406 62.1375 51.3406C66.1258 51.3406 68.7276 48.7852 68.7276 45.4748C68.7276 41.6997 65.8374 40.1317 60.9235 38.5636C55.1998 36.7051 50.3435 34.1497 50.3435 27.0642C50.3435 20.5595 55.3156 15.5648 61.7899 15.5648V15.5648ZM10.9264 0C17.1123 0 22.142 4.29777 22.2576 10.2798C22.3154 11.964 21.1013 12.8932 19.7717 12.8932C18.4999 12.8932 17.4013 11.964 17.3435 10.396C17.2857 7.02742 14.453 4.53005 10.8686 4.53005C7.5155 4.53005 4.97188 6.91128 4.97188 10.1635C4.97188 13.7063 7.34209 15.2744 12.2562 17.0748C17.5171 18.9914 22.3154 21.2565 22.3154 27.9934C22.3154 33.8593 17.7483 38.5636 11.389 38.5636C5.1453 38.5636 0 34.1497 0 28.1676C0 24.4507 1.79217 21.8372 3.52654 21.8372C5.02969 21.8372 5.95468 22.8245 5.95468 24.1603C5.95468 25.3218 4.97188 25.8446 4.97188 27.9353C4.97188 31.6523 7.97806 34.0335 11.389 34.0335C14.9733 34.0335 17.3435 31.5361 17.3435 28.5162C17.3435 24.7992 14.9733 23.2311 10.0592 21.4887C4.56713 19.5141 0 17.1329 0 10.5702C0 4.64619 4.74054 0 10.9264 0ZM36.3295 15.5648C43.1512 15.5648 47.9496 20.6756 47.9496 27.645V36.1243C47.9496 37.5763 46.7934 38.5636 45.4638 38.5636C44.0762 38.5636 42.92 37.5763 42.92 36.1243V27.8192C42.92 23.2311 40.3185 20.0948 36.2138 20.0948C32.5716 20.0948 29.6811 23.173 29.6811 27.1222C29.6811 30.7811 32.5138 33.9174 36.0982 33.9174C37.4279 33.9174 38.006 33.5688 38.8153 33.5688C39.9139 33.5688 41.0701 34.4981 41.0701 35.8339C41.0701 37.6343 38.9309 38.5636 36.156 38.5636C29.9123 38.5636 24.7093 33.5108 24.7093 27.1222C24.7093 20.5014 29.9701 15.5648 36.3295 15.5648V15.5648ZM87.5981 15.5648C94.0145 15.5648 98.8718 20.0367 98.8718 25.7284C98.8718 27.9353 97.3102 29.2711 94.7663 29.2711H88.1182C86.7884 29.2711 85.8061 28.3419 85.8061 27.1222C85.8061 25.9607 86.7884 25.0315 88.1182 25.0315H93.0901C93.5523 25.0315 93.8999 24.7992 93.8999 24.3345C93.8999 22.6503 91.7602 20.0367 87.7719 20.0367C84.072 20.0367 81.0646 23.2311 81.0646 27.0642C81.0646 30.9553 84.1286 34.0335 87.9444 34.0335C92.3383 34.0335 93.784 31.42 95.5761 31.42C97.0797 31.42 97.8882 32.4073 97.8882 33.5108C97.8882 34.5561 97.1943 35.4854 95.4602 36.589C93.7261 37.6924 91.1243 38.5636 87.8865 38.5636C81.4122 38.5636 76.0928 33.4527 76.0928 27.0642C76.0928 20.6756 81.2384 15.5648 87.5981 15.5648V15.5648Z" fill="#00D639"/>
</svg>
